<svg width="652" height="217" viewBox="0 0 652 217" fill="none" xmlns="http://www.w3.org/2000/svg">
<mask id="path-1-outside-1_6259_7325" maskUnits="userSpaceOnUse" x="-0.489614" y="-0.431006" width="653.613" height="218.853" fill="black">
<rect fill="white" x="-0.489614" y="-0.431006" width="653.613" height="218.853"/>
<path fill-rule="evenodd" clip-rule="evenodd" d="M206.624 46.473C201.831 46.4594 200.241 52.2426 200.218 60.2441L200.101 95.3615C211.814 82.2367 212.959 70.4866 212.988 60.2803C213.01 52.3233 211.417 46.4865 206.624 46.473ZM126.638 46.2462C121.827 46.2326 120.272 52.1048 120.25 60.0174L120.151 94.9304C131.855 81.8055 133.008 70.1622 133.037 60.0536C133.06 52.0966 131.449 46.2598 126.638 46.2462ZM221.963 132.435L221.963 132.434C222.33 132.109 222.663 131.813 222.958 131.558L231.007 124.628L250.241 146.74L242.218 153.688C238.131 157.344 233.723 160.625 229.047 163.492C220.817 168.385 212.691 170.852 204.804 170.829C199.524 170.872 194.321 169.571 189.683 167.049C185.045 164.527 181.125 160.867 178.292 156.414C177.938 155.879 177.601 155.327 177.265 154.766L175.143 156.6C163.091 166.995 147.013 170.665 135.977 170.634C128.907 170.586 121.943 168.917 115.619 165.756C109.296 162.596 103.781 158.028 99.4992 152.403L79.2906 169.878L60.0838 147.73L90.7669 121.145L90.941 59.8988C90.9738 48.35 93.7767 38.3293 99.0266 30.9028C102.098 26.5003 106.207 22.923 110.992 20.4879C115.776 18.0528 121.087 16.8349 126.455 16.9423C144.355 16.9931 162.386 30.3712 162.302 60.1366C162.251 77.8021 158.797 101.059 132.054 124.17L121.839 133.031C123.324 135.487 125.404 137.531 127.886 138.973C130.368 140.416 133.173 141.211 136.043 141.287C141.752 141.303 149.316 139.368 158.442 132.202L170.744 121.568L170.918 60.1255C170.951 48.5767 173.745 38.556 179.004 31.1295C182.075 26.7199 186.188 23.1372 190.978 20.7001C195.768 18.2631 201.086 17.047 206.459 17.1602C224.368 17.211 242.399 30.5891 242.314 60.3545C242.264 78.1089 238.818 101.464 212.076 124.574L200.63 134.49C200.619 138.056 203.206 141.53 205.705 141.537C211.685 141.554 218.412 135.585 221.963 132.435ZM585.58 61.3412C585.603 53.3397 587.184 47.5564 591.977 47.57C596.77 47.5836 598.39 53.4205 598.367 61.3775C598.338 71.5838 597.184 83.3338 585.48 96.4587L585.58 61.3412ZM590.103 171.926C597.991 171.949 606.116 169.482 614.347 164.589C619.02 161.719 623.428 158.438 627.518 154.785L635.54 147.837L616.325 125.725L608.302 132.69C608.184 132.792 608.059 132.901 607.929 133.015C607.736 133.185 607.529 133.368 607.311 133.561C603.75 136.71 596.991 142.687 591.04 142.67C588.55 142.663 585.954 139.188 585.965 135.632L597.402 125.671C624.145 102.57 627.581 79.2148 627.632 61.4516C627.716 31.6861 609.685 18.3169 591.776 18.2661C586.404 18.1527 581.086 19.3677 576.297 21.8031C571.507 24.2386 567.393 27.819 564.321 32.2265C559.062 39.653 556.268 49.6825 556.235 61.2313L556.057 124.061C555.956 159.489 571.465 171.847 590.068 171.899L590.103 171.926ZM17.0701 19.4457L16.6504 167.33L47.5422 167.418L47.7066 109.514L78.0471 109.6L78.1347 78.7237L47.7942 78.6375L47.8743 50.4101L78.2148 50.4963L78.3024 19.6196L17.0701 19.4457ZM283.967 51.0473L286.066 51.0532C291.873 51.0697 296.73 53.4573 296.698 64.8905C296.665 76.3237 292.86 79.1045 285.986 79.085L283.888 79.079L283.967 51.0473ZM327.564 64.5069C327.601 51.4556 323.551 40.3131 315.855 32.2808C308.381 24.4893 298.238 20.1841 286.154 20.1498L253.163 20.0562L252.742 168.394L283.634 168.482L283.8 109.991L285.899 109.997L287.73 110.002L299.819 168.235L331.377 168.324L316.649 97.3177C323.857 89.3366 327.525 78.2872 327.564 64.5602L327.564 64.5069ZM339.172 20.3972L370.064 20.4851L369.645 168.53L338.753 168.442L339.172 20.3972ZM413.377 64.7574C413.409 53.5376 414.97 48.6699 419.603 48.683C424.236 48.6961 426.045 53.5733 426.013 64.7931L425.829 129.534C425.799 140.087 424.009 143.985 419.403 143.972C414.797 143.959 413.189 140.051 413.22 129.498L413.377 64.7574ZM419.825 17.8067C402.663 17.7581 382.584 29.997 382.486 64.67L382.301 129.411C382.265 142.115 385.063 152.534 390.616 160.365C393.992 165.193 398.582 169.045 403.923 171.533L403.84 200.472L434.732 200.559L434.815 171.612C440.164 169.157 444.774 165.341 448.185 160.545C453.809 152.728 456.684 142.317 456.721 129.621L456.905 64.8805C456.94 52.5227 454.143 41.7038 448.822 33.6161C445.738 28.728 441.454 24.7096 436.379 21.9426C431.304 19.1755 425.605 17.7518 419.825 17.8067ZM506.347 144.218C510.989 144.232 512.672 140.333 512.702 129.78L513.011 20.8894L543.894 20.977L543.585 129.868C543.549 142.564 540.683 152.975 535.058 160.792C528.407 170.055 518.175 175.138 506.26 175.104C494.344 175.07 484.088 169.92 477.49 160.611C471.936 152.78 469.147 142.361 469.183 129.657L469.492 20.7658L500.384 20.8535L500.075 129.744C500.045 140.297 501.706 144.205 506.347 144.218Z"/>
</mask>
<path fill-rule="evenodd" clip-rule="evenodd" d="M206.624 46.473C201.831 46.4594 200.241 52.2426 200.218 60.2441L200.101 95.3615C211.814 82.2367 212.959 70.4866 212.988 60.2803C213.01 52.3233 211.417 46.4865 206.624 46.473ZM126.638 46.2462C121.827 46.2326 120.272 52.1048 120.25 60.0174L120.151 94.9304C131.855 81.8055 133.008 70.1622 133.037 60.0536C133.06 52.0966 131.449 46.2598 126.638 46.2462ZM221.963 132.435L221.963 132.434C222.33 132.109 222.663 131.813 222.958 131.558L231.007 124.628L250.241 146.74L242.218 153.688C238.131 157.344 233.723 160.625 229.047 163.492C220.817 168.385 212.691 170.852 204.804 170.829C199.524 170.872 194.321 169.571 189.683 167.049C185.045 164.527 181.125 160.867 178.292 156.414C177.938 155.879 177.601 155.327 177.265 154.766L175.143 156.6C163.091 166.995 147.013 170.665 135.977 170.634C128.907 170.586 121.943 168.917 115.619 165.756C109.296 162.596 103.781 158.028 99.4992 152.403L79.2906 169.878L60.0838 147.73L90.7669 121.145L90.941 59.8988C90.9738 48.35 93.7767 38.3293 99.0266 30.9028C102.098 26.5003 106.207 22.923 110.992 20.4879C115.776 18.0528 121.087 16.8349 126.455 16.9423C144.355 16.9931 162.386 30.3712 162.302 60.1366C162.251 77.8021 158.797 101.059 132.054 124.17L121.839 133.031C123.324 135.487 125.404 137.531 127.886 138.973C130.368 140.416 133.173 141.211 136.043 141.287C141.752 141.303 149.316 139.368 158.442 132.202L170.744 121.568L170.918 60.1255C170.951 48.5767 173.745 38.556 179.004 31.1295C182.075 26.7199 186.188 23.1372 190.978 20.7001C195.768 18.2631 201.086 17.047 206.459 17.1602C224.368 17.211 242.399 30.5891 242.314 60.3545C242.264 78.1089 238.818 101.464 212.076 124.574L200.63 134.49C200.619 138.056 203.206 141.53 205.705 141.537C211.685 141.554 218.412 135.585 221.963 132.435ZM585.58 61.3412C585.603 53.3397 587.184 47.5564 591.977 47.57C596.77 47.5836 598.39 53.4205 598.367 61.3775C598.338 71.5838 597.184 83.3338 585.48 96.4587L585.58 61.3412ZM590.103 171.926C597.991 171.949 606.116 169.482 614.347 164.589C619.02 161.719 623.428 158.438 627.518 154.785L635.54 147.837L616.325 125.725L608.302 132.69C608.184 132.792 608.059 132.901 607.929 133.015C607.736 133.185 607.529 133.368 607.311 133.561C603.75 136.71 596.991 142.687 591.04 142.67C588.55 142.663 585.954 139.188 585.965 135.632L597.402 125.671C624.145 102.57 627.581 79.2148 627.632 61.4516C627.716 31.6861 609.685 18.3169 591.776 18.2661C586.404 18.1527 581.086 19.3677 576.297 21.8031C571.507 24.2386 567.393 27.819 564.321 32.2265C559.062 39.653 556.268 49.6825 556.235 61.2313L556.057 124.061C555.956 159.489 571.465 171.847 590.068 171.899L590.103 171.926ZM17.0701 19.4457L16.6504 167.33L47.5422 167.418L47.7066 109.514L78.0471 109.6L78.1347 78.7237L47.7942 78.6375L47.8743 50.4101L78.2148 50.4963L78.3024 19.6196L17.0701 19.4457ZM283.967 51.0473L286.066 51.0532C291.873 51.0697 296.73 53.4573 296.698 64.8905C296.665 76.3237 292.86 79.1045 285.986 79.085L283.888 79.079L283.967 51.0473ZM327.564 64.5069C327.601 51.4556 323.551 40.3131 315.855 32.2808C308.381 24.4893 298.238 20.1841 286.154 20.1498L253.163 20.0562L252.742 168.394L283.634 168.482L283.8 109.991L285.899 109.997L287.73 110.002L299.819 168.235L331.377 168.324L316.649 97.3177C323.857 89.3366 327.525 78.2872 327.564 64.5602L327.564 64.5069ZM339.172 20.3972L370.064 20.4851L369.645 168.53L338.753 168.442L339.172 20.3972ZM413.377 64.7574C413.409 53.5376 414.97 48.6699 419.603 48.683C424.236 48.6961 426.045 53.5733 426.013 64.7931L425.829 129.534C425.799 140.087 424.009 143.985 419.403 143.972C414.797 143.959 413.189 140.051 413.22 129.498L413.377 64.7574ZM419.825 17.8067C402.663 17.7581 382.584 29.997 382.486 64.67L382.301 129.411C382.265 142.115 385.063 152.534 390.616 160.365C393.992 165.193 398.582 169.045 403.923 171.533L403.84 200.472L434.732 200.559L434.815 171.612C440.164 169.157 444.774 165.341 448.185 160.545C453.809 152.728 456.684 142.317 456.721 129.621L456.905 64.8805C456.94 52.5227 454.143 41.7038 448.822 33.6161C445.738 28.728 441.454 24.7096 436.379 21.9426C431.304 19.1755 425.605 17.7518 419.825 17.8067ZM506.347 144.218C510.989 144.232 512.672 140.333 512.702 129.78L513.011 20.8894L543.894 20.977L543.585 129.868C543.549 142.564 540.683 152.975 535.058 160.792C528.407 170.055 518.175 175.138 506.26 175.104C494.344 175.07 484.088 169.92 477.49 160.611C471.936 152.78 469.147 142.361 469.183 129.657L469.492 20.7658L500.384 20.8535L500.075 129.744C500.045 140.297 501.706 144.205 506.347 144.218Z" fill="white"/>
<path d="M200.218 60.2441L216.562 60.2988L216.562 60.2906L200.218 60.2441ZM200.101 95.3615L183.757 95.3068C183.734 102.096 187.912 108.193 194.252 110.623C200.592 113.053 207.774 111.31 212.295 106.244L200.101 95.3615ZM212.988 60.2803L229.331 60.3268L229.331 60.3268L212.988 60.2803ZM120.25 60.0174L136.594 60.0639L136.594 60.0639L120.25 60.0174ZM126.638 46.2462L126.592 62.5899L126.592 62.5899L126.638 46.2462ZM120.151 94.9304L103.807 94.884C103.788 101.673 107.968 107.767 114.308 110.194C120.649 112.621 127.83 110.875 132.349 105.808L120.151 94.9304ZM133.037 60.0536L149.381 60.1001L149.381 60.1001L133.037 60.0536ZM221.963 132.434L232.485 144.941C232.595 144.848 232.704 144.754 232.811 144.659L221.963 132.434ZM221.963 132.435L211.441 119.928C211.331 120.02 211.223 120.114 211.116 120.209L221.963 132.435ZM222.958 131.558L212.295 119.171C212.28 119.185 212.264 119.198 212.249 119.211L222.958 131.558ZM231.007 124.628L243.339 113.902C237.436 107.116 227.16 106.374 220.344 112.242L231.007 124.628ZM250.241 146.74L260.94 159.095C264.221 156.254 266.238 152.223 266.544 147.893C266.85 143.563 265.421 139.289 262.572 136.014L250.241 146.74ZM242.218 153.688L231.519 141.332C231.453 141.39 231.387 141.448 231.321 141.506L242.218 153.688ZM229.047 163.492L237.399 177.541C237.463 177.503 237.527 177.464 237.591 177.425L229.047 163.492ZM204.804 170.829L204.85 154.486C204.791 154.485 204.731 154.486 204.672 154.486L204.804 170.829ZM189.683 167.049L197.491 152.691L197.491 152.691L189.683 167.049ZM178.292 156.414L192.082 147.641C192.027 147.555 191.972 147.47 191.916 147.385L178.292 156.414ZM177.265 154.766L191.283 146.363C188.802 142.223 184.617 139.392 179.852 138.628C175.086 137.864 170.227 139.246 166.576 142.402L177.265 154.766ZM175.143 156.6L185.818 168.977C185.823 168.972 185.828 168.968 185.833 168.964L175.143 156.6ZM135.977 170.634L135.865 186.978C135.887 186.978 135.909 186.978 135.931 186.978L135.977 170.634ZM115.619 165.756L108.313 180.376L108.313 180.376L115.619 165.756ZM99.4992 152.403L112.504 142.503C109.771 138.914 105.676 136.613 101.189 136.147C96.702 135.68 92.2214 137.089 88.8089 140.04L99.4992 152.403ZM79.2906 169.878L66.9431 180.586C72.851 187.398 83.16 188.139 89.9809 182.24L79.2906 169.878ZM60.0838 147.73L49.3814 135.378C46.1044 138.217 44.09 142.242 43.7814 146.567C43.4729 150.892 44.8956 155.162 47.7364 158.438L60.0838 147.73ZM90.7669 121.145L101.469 133.498C105.04 130.404 107.097 125.916 107.111 121.192L90.7669 121.145ZM90.941 59.8988L107.285 59.9452L90.941 59.8988ZM99.0266 30.9028L112.372 40.3371C112.392 40.3093 112.412 40.2815 112.431 40.2536L99.0266 30.9028ZM110.992 20.4879L118.405 35.0535L118.405 35.0535L110.992 20.4879ZM126.455 16.9423L126.128 33.2828C126.221 33.2847 126.315 33.2858 126.408 33.286L126.455 16.9423ZM162.302 60.1366L145.958 60.0901L145.958 60.0901L162.302 60.1366ZM132.054 124.17L121.368 111.804C121.36 111.81 121.353 111.817 121.345 111.824L132.054 124.17ZM121.839 133.031L111.129 120.685C105.119 125.899 103.736 134.683 107.855 141.491L121.839 133.031ZM127.886 138.973L136.098 124.842L136.098 124.842L127.886 138.973ZM136.043 141.287L135.613 157.625C135.741 157.628 135.869 157.63 135.997 157.63L136.043 141.287ZM158.442 132.202L168.536 145.056C168.738 144.897 168.936 144.734 169.13 144.566L158.442 132.202ZM170.744 121.568L181.432 133.932C185.011 130.838 187.074 126.345 187.087 121.614L170.744 121.568ZM170.918 60.1255L187.262 60.1719L170.918 60.1255ZM179.004 31.1295L192.342 40.5744C192.367 40.5397 192.391 40.5048 192.416 40.4698L179.004 31.1295ZM190.978 20.7001L198.389 35.2668L190.978 20.7001ZM206.459 17.1602L206.114 33.5004C206.214 33.5025 206.313 33.5037 206.412 33.5039L206.459 17.1602ZM242.314 60.3545L258.658 60.401L258.658 60.401L242.314 60.3545ZM212.076 124.574L201.389 112.208C201.384 112.213 201.379 112.217 201.374 112.222L212.076 124.574ZM200.63 134.49L189.928 122.138C186.357 125.231 184.299 129.719 184.286 134.444L200.63 134.49ZM205.705 141.537L205.659 157.881L205.659 157.881L205.705 141.537ZM591.977 47.57L592.023 31.2263L591.977 47.57ZM585.58 61.3412L601.924 61.3876L601.924 61.3876L585.58 61.3412ZM585.48 96.4587L569.136 96.4123C569.117 103.202 573.297 109.296 579.638 111.723C585.979 114.15 593.16 112.404 597.678 107.336L585.48 96.4587ZM614.347 164.589L622.699 178.638C622.766 178.598 622.833 178.557 622.899 178.516L614.347 164.589ZM590.103 171.926L580.263 184.976C583.086 187.104 586.522 188.26 590.057 188.27L590.103 171.926ZM627.518 154.785L616.818 142.429C616.755 142.484 616.692 142.54 616.629 142.596L627.518 154.785ZM635.54 147.837L646.239 160.192C649.52 157.351 651.536 153.323 651.843 148.994C652.15 144.665 650.723 140.392 647.877 137.117L635.54 147.837ZM616.325 125.725L628.661 115.004C622.742 108.194 612.424 107.468 605.61 113.383L616.325 125.725ZM608.302 132.69L618.992 145.053C619 145.046 619.008 145.039 619.016 145.032L608.302 132.69ZM607.929 133.015L618.713 145.297L618.715 145.295L607.929 133.015ZM607.311 133.561L596.483 121.318L596.483 121.318L607.311 133.561ZM591.04 142.67L591.086 126.326L591.04 142.67ZM585.965 135.632L575.231 123.307C571.679 126.4 569.634 130.876 569.621 135.586L585.965 135.632ZM597.402 125.671L586.718 113.303C586.701 113.318 586.684 113.332 586.668 113.346L597.402 125.671ZM627.632 61.4516L611.288 61.4051L611.288 61.4052L627.632 61.4516ZM591.776 18.2661L591.431 34.6062C591.53 34.6083 591.63 34.6095 591.729 34.6098L591.776 18.2661ZM576.297 21.8031L583.705 36.3717L583.705 36.3716L576.297 21.8031ZM564.321 32.2265L577.659 41.6714C577.682 41.6387 577.705 41.6059 577.728 41.5731L564.321 32.2265ZM556.235 61.2313L539.892 61.1848L539.892 61.1849L556.235 61.2313ZM556.057 124.061L572.401 124.107L572.401 124.107L556.057 124.061ZM590.068 171.899L599.907 158.85C597.085 156.721 593.649 155.566 590.114 155.556L590.068 171.899ZM16.6504 167.33L0.306734 167.284C0.281119 176.31 7.57765 183.648 16.604 183.674L16.6504 167.33ZM17.0701 19.4457L17.1165 3.10196C12.7819 3.08965 8.61991 4.79977 5.54616 7.85611C2.47242 10.9125 0.738696 15.0647 0.726396 19.3993L17.0701 19.4457ZM47.5422 167.418L47.4958 183.762C51.8305 183.774 55.9924 182.064 59.0662 179.008C62.1399 175.951 63.8736 171.799 63.8859 167.465L47.5422 167.418ZM47.7066 109.514L47.753 93.1706C43.4184 93.1582 39.2564 94.8684 36.1826 97.9247C33.1089 100.981 31.3752 105.133 31.3629 109.468L47.7066 109.514ZM78.0471 109.6L78.0006 125.944C82.3353 125.956 86.4972 124.246 89.571 121.19C92.6447 118.134 94.3785 113.981 94.3908 109.647L78.0471 109.6ZM78.1347 78.7237L94.4784 78.7701C94.504 69.7437 87.2075 62.4056 78.1811 62.38L78.1347 78.7237ZM47.7942 78.6375L31.4505 78.5911C31.4249 87.6175 38.7214 94.9556 47.7478 94.9812L47.7942 78.6375ZM47.8743 50.4101L47.9207 34.0664C43.5861 34.0541 39.4241 35.7643 36.3504 38.8206C33.2766 41.8769 31.5429 46.0291 31.5306 50.3638L47.8743 50.4101ZM78.2148 50.4963L78.1684 66.84C82.503 66.8523 86.665 65.1422 89.7387 62.0859C92.8124 59.0295 94.5462 54.8773 94.5585 50.5427L78.2148 50.4963ZM78.3024 19.6196L94.6461 19.666C94.6717 10.6396 87.3752 3.30151 78.3488 3.27587L78.3024 19.6196ZM283.967 51.0473L284.014 34.7036C274.987 34.6779 267.649 41.9745 267.624 51.0008L283.967 51.0473ZM285.986 79.085L285.94 95.4287L285.94 95.4287L285.986 79.085ZM283.888 79.079L267.544 79.0326C267.532 83.3672 269.242 87.5292 272.298 90.6029C275.355 93.6767 279.507 95.4104 283.841 95.4227L283.888 79.079ZM315.855 32.2808L327.657 20.9739L327.65 20.9668L315.855 32.2808ZM286.154 20.1498L286.2 3.8061L286.154 20.1498ZM253.163 20.0562L253.21 3.71246C244.183 3.68684 236.845 10.9834 236.82 20.0098L253.163 20.0562ZM252.742 168.394L236.398 168.348C236.386 172.683 238.096 176.845 241.153 179.918C244.209 182.992 248.361 184.726 252.696 184.738L252.742 168.394ZM283.634 168.482L283.588 184.826C292.614 184.851 299.952 177.555 299.978 168.528L283.634 168.482ZM283.8 109.991L283.846 93.6476C274.82 93.622 267.482 100.919 267.456 109.945L283.8 109.991ZM287.73 110.002L303.733 106.681C302.162 99.1132 295.505 93.6807 287.777 93.6588L287.73 110.002ZM299.819 168.235L283.816 171.557C285.387 179.124 292.044 184.556 299.772 184.578L299.819 168.235ZM331.377 168.324L331.331 184.668C336.256 184.682 340.925 182.474 344.039 178.659C347.153 174.843 348.381 169.827 347.381 165.005L331.377 168.324ZM316.649 97.3177L304.519 86.3636C301.026 90.2316 299.587 95.5338 300.646 100.637L316.649 97.3177ZM370.064 20.4851L386.407 20.5314C386.433 11.5051 379.136 4.1671 370.11 4.1414L370.064 20.4851ZM339.172 20.3972L339.218 4.05346C334.884 4.04112 330.722 5.75125 327.648 8.80761C324.574 11.864 322.84 16.0162 322.828 20.3509L339.172 20.3972ZM369.645 168.53L369.598 184.874C373.933 184.886 378.095 183.176 381.168 180.119C384.242 177.063 385.976 172.911 385.988 168.576L369.645 168.53ZM338.753 168.442L322.409 168.396C322.383 177.422 329.68 184.76 338.706 184.786L338.753 168.442ZM413.377 64.7574L397.034 64.7108L397.034 64.7175L413.377 64.7574ZM426.013 64.7931L442.357 64.8397L442.357 64.8397L426.013 64.7931ZM425.829 129.534L442.172 129.58L425.829 129.534ZM419.403 143.972L419.449 127.628L419.449 127.628L419.403 143.972ZM413.22 129.498L429.563 129.545L429.563 129.538L413.22 129.498ZM382.486 64.67L366.142 64.6234L382.486 64.67ZM419.825 17.8067L419.779 34.1504C419.846 34.1506 419.913 34.1503 419.98 34.1497L419.825 17.8067ZM382.301 129.411L365.957 129.364L365.957 129.364L382.301 129.411ZM390.616 160.365L404.01 150.999C403.99 150.969 403.969 150.94 403.948 150.91L390.616 160.365ZM403.923 171.533L420.267 171.58C420.285 165.209 416.599 159.408 410.824 156.718L403.923 171.533ZM403.84 200.472L387.497 200.425C387.484 204.76 389.194 208.922 392.251 211.996C395.307 215.07 399.459 216.803 403.794 216.816L403.84 200.472ZM434.732 200.559L434.686 216.903C443.712 216.928 451.05 209.632 451.076 200.606L434.732 200.559ZM434.815 171.612L427.999 156.757C422.208 159.414 418.489 165.194 418.471 171.565L434.815 171.612ZM448.185 160.545L434.918 150.999C434.9 151.024 434.883 151.049 434.865 151.074L448.185 160.545ZM456.721 129.621L440.377 129.575L440.377 129.575L456.721 129.621ZM456.905 64.8805L473.249 64.927L473.249 64.927L456.905 64.8805ZM448.822 33.6161L435 42.3381C435.056 42.4257 435.112 42.5128 435.169 42.5994L448.822 33.6161ZM436.379 21.9426L444.203 7.59293L444.203 7.59291L436.379 21.9426ZM512.702 129.78L529.046 129.827L529.046 129.827L512.702 129.78ZM513.011 20.8894L513.058 4.54566C508.723 4.53335 504.561 6.24347 501.487 9.29981C498.413 12.3561 496.68 16.5083 496.667 20.843L513.011 20.8894ZM543.894 20.977L560.238 21.0234C560.263 11.9971 552.967 4.65897 543.94 4.63334L543.894 20.977ZM535.058 160.792L521.792 151.246C521.789 151.251 521.786 151.255 521.782 151.259L535.058 160.792ZM477.49 160.611L490.824 151.16L490.821 151.156L477.49 160.611ZM469.183 129.657L485.527 129.703L469.183 129.657ZM469.492 20.7658L469.539 4.42209C465.204 4.40979 461.042 6.11991 457.968 9.17624C454.895 12.2326 453.161 16.3848 453.149 20.7194L469.492 20.7658ZM500.384 20.8535L516.728 20.8999C516.753 11.8735 509.457 4.53543 500.431 4.5098L500.384 20.8535ZM500.075 129.744L516.419 129.791L516.419 129.791L500.075 129.744ZM216.562 60.2906C216.566 58.7867 216.646 57.6791 216.749 56.9216C216.86 56.1075 216.947 56.0813 216.76 56.5391C216.581 56.977 215.836 58.6229 213.876 60.2068C211.644 62.0098 208.957 62.8234 206.578 62.8167L206.671 30.1293C201.896 30.1157 197.212 31.6472 193.333 34.7807C189.726 37.6952 187.683 41.2844 186.505 44.1666C184.281 49.6039 183.888 55.6294 183.875 60.1976L216.562 60.2906ZM216.444 95.4163L216.562 60.2988L183.875 60.1893L183.757 95.3068L216.444 95.4163ZM196.644 60.2338C196.631 64.7658 196.354 68.4159 195.269 72.0355C194.23 75.5053 192.235 79.6294 187.907 84.4793L212.295 106.244C227.713 88.9671 229.296 72.6225 229.331 60.3268L196.644 60.2338ZM206.578 62.8167C204.17 62.8098 201.493 61.9656 199.294 60.1659C197.364 58.5872 196.636 56.9605 196.463 56.5332C196.281 56.0833 196.368 56.1138 196.475 56.9171C196.574 57.6649 196.648 58.7573 196.644 60.2338L229.331 60.3268C229.344 55.7391 228.968 49.7145 226.76 44.2625C225.593 41.3796 223.569 37.794 219.994 34.8683C216.149 31.7218 211.475 30.1429 206.671 30.1293L206.578 62.8167ZM136.594 60.0639C136.598 58.5764 136.676 57.4716 136.778 56.7085C136.889 55.8885 136.978 55.8465 136.8 56.2865C136.633 56.7008 135.904 58.3428 133.955 59.9352C131.726 61.7569 129.015 62.5968 126.592 62.5899L126.685 29.9025C121.856 29.8888 117.147 31.4576 113.272 34.6238C109.678 37.5607 107.657 41.1628 106.497 44.0324C104.303 49.4565 103.919 55.4564 103.906 59.9709L136.594 60.0639ZM136.494 94.9769L136.594 60.0639L103.906 59.9709L103.807 94.884L136.494 94.9769ZM116.693 60.0072C116.681 64.4743 116.404 68.0656 115.325 71.6387C114.29 75.0695 112.296 79.1822 107.952 84.0527L132.349 105.808C147.728 88.5623 149.346 72.3566 149.381 60.1001L116.693 60.0072ZM126.592 62.5899C124.204 62.5831 121.544 61.7497 119.352 59.9647C117.425 58.3959 116.693 56.7756 116.516 56.3418C116.331 55.8874 116.417 55.9125 116.524 56.7091C116.623 57.4504 116.697 58.5368 116.693 60.0072L149.381 60.1001C149.394 55.4993 149.012 49.4632 146.784 44.0005C145.606 41.1112 143.571 37.5318 139.99 34.6161C136.143 31.4842 131.477 29.9161 126.685 29.9025L126.592 62.5899ZM211.442 119.928L211.441 119.928L232.485 144.941L232.485 144.941L211.442 119.928ZM212.249 119.211C211.87 119.539 211.463 119.901 211.116 120.209L232.811 144.659C233.197 144.316 233.456 144.087 233.667 143.904L212.249 119.211ZM220.344 112.242L212.295 119.171L233.621 143.944L241.67 137.014L220.344 112.242ZM262.572 136.014L243.339 113.902L218.676 135.354L237.909 157.466L262.572 136.014ZM252.917 166.043L260.94 159.095L239.542 134.385L231.519 141.332L252.917 166.043ZM237.591 177.425C243.101 174.046 248.297 170.178 253.115 165.869L231.321 141.506C227.964 144.509 224.344 147.204 220.504 149.559L237.591 177.425ZM204.757 187.173C216.187 187.205 227.185 183.613 237.399 177.541L220.695 149.444C214.448 153.157 209.195 154.498 204.85 154.486L204.757 187.173ZM181.876 181.407C188.949 185.254 196.884 187.237 204.935 187.172L204.672 154.486C202.164 154.506 199.693 153.888 197.491 152.691L181.876 181.407ZM164.502 165.186C168.824 171.979 174.803 177.561 181.876 181.407L197.491 152.691C195.288 151.493 193.427 149.755 192.082 147.641L164.502 165.186ZM163.247 163.169C163.606 163.768 164.1 164.584 164.668 165.442L191.916 147.385C191.776 147.174 191.596 146.886 191.283 146.363L163.247 163.169ZM185.833 168.964L187.954 167.129L166.576 142.402L164.454 144.237L185.833 168.964ZM135.931 186.978C149.81 187.017 170.053 182.574 185.818 168.977L164.469 144.224C156.13 151.416 144.215 154.314 136.024 154.29L135.931 186.978ZM108.313 180.376C116.871 184.653 126.297 186.912 135.865 186.978L136.089 154.291C131.518 154.259 127.015 153.18 122.926 151.137L108.313 180.376ZM86.4945 162.302C92.2899 169.915 99.7539 176.098 108.313 180.376L122.926 151.137C118.837 149.093 115.272 146.14 112.504 142.503L86.4945 162.302ZM89.9809 182.24L110.19 164.766L88.8089 140.04L68.6002 157.515L89.9809 182.24ZM47.7364 158.438L66.9431 180.586L91.638 159.17L72.4312 137.022L47.7364 158.438ZM80.0645 108.793L49.3814 135.378L70.7861 160.082L101.469 133.498L80.0645 108.793ZM74.5973 59.8523L74.4232 121.099L107.111 121.192L107.285 59.9452L74.5973 59.8523ZM85.6807 21.4686C78.0307 32.2904 74.6372 45.8338 74.5973 59.8523L107.285 59.9452C107.311 50.8661 109.523 44.3683 112.372 40.3371L85.6807 21.4686ZM103.578 5.92229C96.3987 9.57651 90.2311 14.9448 85.6221 21.552L112.431 40.2536C113.964 38.0557 116.016 36.2695 118.405 35.0535L103.578 5.92229ZM126.782 0.601842C118.727 0.440697 110.758 2.26808 103.578 5.9223L118.405 35.0535C120.795 33.8374 123.447 33.2292 126.128 33.2828L126.782 0.601842ZM178.645 60.1831C178.697 41.9096 173.119 26.7945 162.958 16.1249C152.879 5.54276 139.501 0.635491 126.501 0.598638L126.408 33.286C131.309 33.2999 135.896 35.1071 139.287 38.668C142.595 42.1415 145.99 48.5982 145.958 60.0901L178.645 60.1831ZM142.741 136.536C158.002 123.347 167.192 109.576 172.435 95.9977C177.637 82.5225 178.617 70.0913 178.645 60.1831L145.958 60.0901C145.936 67.8473 145.164 75.8773 141.941 84.2246C138.758 92.4687 132.85 101.881 121.368 111.804L142.741 136.536ZM132.548 145.377L142.764 136.516L121.345 111.824L111.129 120.685L132.548 145.377ZM136.098 124.842C135.985 124.776 135.89 124.683 135.822 124.571L107.855 141.491C110.759 146.292 114.823 150.285 119.674 153.104L136.098 124.842ZM136.472 124.948C136.34 124.945 136.212 124.908 136.098 124.842L119.674 153.104C124.524 155.923 130.005 157.477 135.613 157.625L136.472 124.948ZM148.348 119.347C141.721 124.551 137.652 124.947 136.089 124.943L135.997 157.63C145.851 157.658 156.91 154.185 168.536 145.056L148.348 119.347ZM160.055 109.203L147.754 119.837L169.13 144.566L181.432 133.932L160.055 109.203ZM154.575 60.079L154.4 121.521L187.087 121.614L187.262 60.1719L154.575 60.079ZM165.665 21.6846C157.994 32.5184 154.614 46.0717 154.575 60.079L187.262 60.1719C187.288 51.0817 189.496 44.5937 192.342 40.5744L165.665 21.6846ZM183.566 6.13352C176.377 9.79168 170.202 15.1695 165.592 21.7892L192.416 40.4698C193.948 38.2702 196 36.4828 198.389 35.2668L183.566 6.13352ZM206.803 0.820103C198.738 0.650201 190.756 2.47538 183.566 6.13352L198.389 35.2668C200.779 34.0507 203.433 33.4439 206.114 33.5004L206.803 0.820103ZM258.658 60.401C258.71 42.1275 253.132 27.0118 242.968 16.3419C232.888 5.7593 219.507 0.853402 206.505 0.816543L206.412 33.5039C211.319 33.5179 215.908 35.3264 219.3 38.8869C222.608 42.3601 226.003 48.8161 225.971 60.3081L258.658 60.401ZM222.762 136.94C238.034 123.742 247.222 109.938 252.459 96.3231C257.654 82.8156 258.63 70.3427 258.658 60.401L225.971 60.3081C225.948 68.1207 225.176 76.2023 221.95 84.5884C218.766 92.8672 212.86 102.296 201.389 112.208L222.762 136.94ZM211.331 146.843L222.777 136.927L201.374 112.222L189.928 122.138L211.331 146.843ZM205.751 125.194C208.944 125.203 211.327 126.306 212.707 127.195C214.094 128.088 214.948 129.054 215.438 129.727C216.343 130.97 216.979 132.549 216.973 134.537L184.286 134.444C184.27 139.997 186.194 145.096 189.015 148.969C191.459 152.326 196.999 157.856 205.659 157.881L205.751 125.194ZM211.116 120.209C209.263 121.853 207.524 123.365 205.783 124.506C204.953 125.051 204.438 125.295 204.236 125.375C204.006 125.467 204.574 125.19 205.751 125.194L205.659 157.881C213.575 157.903 220.106 154.202 223.707 151.841C227.712 149.215 231.112 146.167 232.81 144.66L211.116 120.209ZM592.023 31.2263C587.248 31.2128 582.562 32.7447 578.681 35.8828C575.073 38.801 573.033 42.3938 571.857 45.2755C569.639 50.7107 569.249 56.7341 569.236 61.2948L601.924 61.3876C601.928 59.8806 602.007 58.7706 602.11 58.0108C602.221 57.1942 602.309 57.1669 602.122 57.6245C601.944 58.0619 601.199 59.7113 599.236 61.2988C597.001 63.1064 594.31 63.9205 591.931 63.9137L592.023 31.2263ZM614.711 61.4239C614.724 56.8137 614.337 50.7823 612.112 45.3244C610.936 42.4401 608.905 38.8649 605.332 35.9501C601.492 32.8175 596.827 31.24 592.023 31.2263L591.931 63.9137C589.524 63.9069 586.858 63.064 584.669 61.2783C582.747 59.7104 582.019 58.0943 581.844 57.6655C581.66 57.2147 581.747 57.2424 581.853 58.0382C581.953 58.7789 582.027 59.864 582.023 61.3311L614.711 61.4239ZM597.678 107.336C613.08 90.0651 614.676 73.7277 614.711 61.4239L582.023 61.3311C582.01 65.8574 581.732 69.5088 580.646 73.1299C579.605 76.6028 577.608 80.7295 573.282 85.581L597.678 107.336ZM569.236 61.2948L569.136 96.4123L601.824 96.5051L601.924 61.3876L569.236 61.2948ZM605.995 150.541C599.748 154.254 594.495 155.595 590.149 155.582L590.057 188.27C601.486 188.302 612.485 184.71 622.699 178.638L605.995 150.541ZM616.629 142.596C613.265 145.602 609.639 148.301 605.794 150.662L622.899 178.516C628.401 175.138 633.591 171.275 638.406 166.973L616.629 142.596ZM624.841 135.482L616.818 142.429L638.217 167.14L646.239 160.192L624.841 135.482ZM603.988 136.446L623.204 158.558L647.877 137.117L628.661 115.004L603.988 136.446ZM619.016 145.032L627.039 138.067L605.61 113.383L597.587 120.349L619.016 145.032ZM618.715 145.295C618.824 145.199 618.915 145.12 618.992 145.053L597.611 120.328C597.452 120.465 597.295 120.603 597.144 120.735L618.715 145.295ZM618.138 145.804C618.361 145.606 618.545 145.444 618.713 145.297L597.146 120.733C596.927 120.926 596.697 121.129 596.483 121.318L618.138 145.804ZM590.994 159.014C598.906 159.036 605.444 155.322 609.028 152.974C613.03 150.353 616.434 147.311 618.138 145.804L596.483 121.318C594.626 122.96 592.871 124.481 591.116 125.631C590.278 126.18 589.757 126.428 589.551 126.51C589.313 126.605 589.89 126.323 591.086 126.326L590.994 159.014ZM569.621 135.586C569.605 141.156 571.546 146.256 574.362 150.116C576.796 153.45 582.332 158.989 590.994 159.014L591.086 126.326C594.291 126.335 596.677 127.445 598.048 128.329C599.429 129.219 600.279 130.179 600.767 130.848C601.666 132.08 602.314 133.664 602.308 135.678L569.621 135.586ZM586.668 113.346L575.231 123.307L596.698 147.957L608.135 137.996L586.668 113.346ZM611.288 61.4052C611.266 69.226 610.494 77.3097 607.271 85.6949C604.089 93.9717 598.186 103.396 586.718 113.303L608.086 138.039C623.36 124.845 632.547 111.041 637.782 97.4241C642.975 83.9156 643.947 71.4404 643.975 61.498L611.288 61.4052ZM591.729 34.6098C596.639 34.6237 601.229 36.4322 604.619 39.9902C607.925 43.4606 611.32 49.9133 611.288 61.4051L643.975 61.498C644.027 43.2244 638.449 28.1098 628.284 17.4415C618.202 6.86081 604.821 1.95928 591.822 1.92241L591.729 34.6098ZM583.705 36.3716C586.095 35.1561 588.749 34.5496 591.431 34.6062L592.121 1.92599C584.058 1.75579 576.078 3.57925 568.889 7.23463L583.705 36.3716ZM577.728 41.5731C579.261 39.374 581.314 37.5872 583.705 36.3717L568.889 7.23459C561.7 10.8899 555.526 16.264 550.913 22.8798L577.728 41.5731ZM572.579 61.2778C572.605 52.1844 574.815 45.6887 577.659 41.6714L550.983 22.7815C543.31 33.6173 539.932 47.1806 539.892 61.1848L572.579 61.2778ZM572.401 124.107L572.579 61.2777L539.892 61.1849L539.713 124.014L572.401 124.107ZM590.114 155.556C584.607 155.54 581.142 153.867 578.67 150.863C575.804 147.378 572.356 139.744 572.401 124.107L539.713 124.014C539.657 143.806 543.913 160.065 553.427 171.629C563.335 183.674 576.925 188.206 590.021 188.243L590.114 155.556ZM599.943 158.876L599.907 158.85L580.228 184.949L580.263 184.976L599.943 158.876ZM32.9941 167.377L33.4138 19.492L0.726396 19.3993L0.306734 167.284L32.9941 167.377ZM47.5887 151.074L16.6968 150.987L16.604 183.674L47.4958 183.762L47.5887 151.074ZM31.3629 109.468L31.1985 167.372L63.8859 167.465L64.0503 109.561L31.3629 109.468ZM78.0935 93.2567L47.753 93.1706L47.6601 125.858L78.0006 125.944L78.0935 93.2567ZM61.791 78.6773L61.7034 109.554L94.3908 109.647L94.4784 78.7701L61.791 78.6773ZM47.7478 94.9812L78.0883 95.0674L78.1811 62.38L47.8406 62.2938L47.7478 94.9812ZM31.5306 50.3638L31.4505 78.5911L64.1379 78.6839L64.218 50.4565L31.5306 50.3638ZM78.2612 34.1526L47.9207 34.0664L47.8279 66.7538L78.1684 66.84L78.2612 34.1526ZM61.9587 19.5732L61.8711 50.4499L94.5585 50.5427L94.6461 19.666L61.9587 19.5732ZM17.0237 35.7894L78.256 35.9633L78.3488 3.27587L17.1165 3.10196L17.0237 35.7894ZM286.112 34.7095L284.014 34.7036L283.921 67.391L286.02 67.3969L286.112 34.7095ZM313.041 64.9369C313.063 57.4128 311.566 48.8706 305.393 42.405C298.974 35.6812 290.896 34.7231 286.112 34.7095L286.02 67.3969C286.444 67.3981 286.052 67.452 285.223 67.188C284.249 66.8778 282.922 66.2043 281.75 64.9761C280.613 63.7858 280.25 62.7314 280.193 62.5406C280.163 62.4373 280.359 63.0681 280.354 64.8441L313.041 64.9369ZM285.94 95.4287C291.172 95.4435 299.87 94.4575 306.329 86.9044C312.066 80.1954 313.022 71.6214 313.041 64.9369L280.354 64.8441C280.348 66.8944 280.165 67.7947 280.124 67.9575C280.097 68.0645 280.345 66.9951 281.486 65.6605C282.737 64.1978 284.259 63.3499 285.436 62.9617C286.382 62.6499 286.769 62.7434 286.033 62.7413L285.94 95.4287ZM283.841 95.4227L285.94 95.4287L286.033 62.7413L283.934 62.7353L283.841 95.4227ZM267.624 51.0008L267.544 79.0326L300.231 79.1254L300.311 51.0937L267.624 51.0008ZM304.054 43.5878C308.323 48.0438 311.248 54.8559 311.22 64.4605L343.908 64.5533C343.955 48.0553 338.779 32.5824 327.657 20.9739L304.054 43.5878ZM286.107 36.4935C294.075 36.5161 299.872 39.228 304.061 43.5949L327.65 20.9668C316.891 9.75049 302.402 3.85209 286.2 3.8061L286.107 36.4935ZM253.117 36.3999L286.107 36.4935L286.2 3.8061L253.21 3.71246L253.117 36.3999ZM269.086 168.441L269.507 20.1026L236.82 20.0098L236.398 168.348L269.086 168.441ZM283.68 152.138L252.789 152.051L252.696 184.738L283.588 184.826L283.68 152.138ZM267.456 109.945L267.29 168.436L299.978 168.528L300.144 110.038L267.456 109.945ZM285.945 93.6536L283.846 93.6476L283.754 126.335L285.852 126.341L285.945 93.6536ZM287.777 93.6588L285.945 93.6536L285.852 126.341L287.684 126.346L287.777 93.6588ZM315.821 164.913L303.733 106.681L271.728 113.324L283.816 171.557L315.821 164.913ZM331.424 151.98L299.865 151.891L299.772 184.578L331.331 184.668L331.424 151.98ZM300.646 100.637L315.374 171.644L347.381 165.005L332.652 93.9982L300.646 100.637ZM311.22 64.5138C311.189 75.3816 308.331 82.1429 304.519 86.3636L328.778 108.272C339.382 96.5304 343.86 81.1927 343.908 64.6066L311.22 64.5138ZM311.22 64.4605L311.22 64.5138L343.908 64.6066L343.908 64.5533L311.22 64.4605ZM370.11 4.1414L339.218 4.05346L339.125 36.7409L370.017 36.8288L370.11 4.1414ZM385.988 168.576L386.407 20.5314L353.72 20.4388L353.301 168.484L385.988 168.576ZM338.706 184.786L369.598 184.874L369.691 152.186L338.799 152.098L338.706 184.786ZM322.828 20.3509L322.409 168.396L355.096 168.488L355.516 20.4434L322.828 20.3509ZM419.65 32.3393C415.43 32.3274 410.709 33.5046 406.558 36.7797C402.66 39.8543 400.588 43.7403 399.446 46.8116C397.366 52.4051 397.05 59.0272 397.034 64.7108L429.721 64.804C429.728 62.3219 429.821 60.5419 429.958 59.2937C430.104 57.9663 430.245 57.7703 430.084 58.2041C429.915 58.6577 429.104 60.628 426.803 62.443C424.248 64.4584 421.46 65.0321 419.557 65.0267L419.65 32.3393ZM442.357 64.8397C442.374 58.9827 442.01 52.2791 439.776 46.5757C438.555 43.459 436.412 39.6754 432.56 36.6976C428.487 33.5484 423.865 32.3513 419.65 32.3393L419.557 65.0267C417.658 65.0214 415 64.4388 412.568 62.5584C410.357 60.8493 409.532 58.9887 409.339 58.4954C409.158 58.0327 409.297 58.1882 409.443 59.4387C409.581 60.6176 409.676 62.3343 409.67 64.7465L442.357 64.8397ZM442.172 129.58L442.357 64.8397L409.67 64.7465L409.485 129.487L442.172 129.58ZM419.357 160.315C422.853 160.325 427.139 159.573 431.231 156.923C435.311 154.281 437.782 150.668 439.247 147.398C441.805 141.689 442.157 135.002 442.172 129.58L409.485 129.487C409.479 131.728 409.376 133.196 409.256 134.106C409.126 135.092 409.045 134.862 409.417 134.032C409.855 133.054 411.013 131.073 413.461 129.487C415.921 127.894 418.256 127.625 419.449 127.628L419.357 160.315ZM396.876 129.452C396.861 134.763 397.124 141.4 399.525 147.065C400.909 150.331 403.309 154.039 407.411 156.779C411.529 159.53 415.866 160.306 419.357 160.315L419.449 127.628C420.637 127.631 423.045 127.913 425.568 129.598C428.074 131.272 429.21 133.341 429.621 134.309C429.968 135.129 429.879 135.333 429.756 134.294C429.643 133.338 429.557 131.829 429.563 129.545L396.876 129.452ZM397.034 64.7175L396.876 129.458L429.563 129.538L429.721 64.7972L397.034 64.7175ZM398.829 64.7166C398.87 50.5816 402.904 43.2859 406.479 39.6063C410.162 35.8156 415.012 34.1369 419.779 34.1504L419.871 1.46296C407.476 1.42791 393.706 5.84435 383.034 16.8293C372.254 27.9252 366.2 44.0855 366.142 64.6234L398.829 64.7166ZM398.645 129.457L398.829 64.7166L366.142 64.6234L365.957 129.364L398.645 129.457ZM403.948 150.91C400.912 146.63 398.615 139.849 398.645 129.457L365.957 129.364C365.915 144.381 369.214 158.438 377.284 169.819L403.948 150.91ZM410.824 156.718C408.089 155.444 405.739 153.471 404.01 150.999L377.222 169.73C382.245 176.914 389.075 182.647 397.021 186.348L410.824 156.718ZM420.184 200.518L420.267 171.58L387.579 171.487L387.497 200.425L420.184 200.518ZM434.778 184.215L403.887 184.128L403.794 216.816L434.686 216.903L434.778 184.215ZM418.471 171.565L418.388 200.513L451.076 200.606L451.158 171.658L418.471 171.565ZM434.865 151.074C433.114 153.537 430.746 155.496 427.999 156.757L441.63 186.467C449.581 182.819 456.435 177.146 461.505 170.016L434.865 151.074ZM440.377 129.575C440.347 139.934 438.004 146.711 434.918 150.999L461.451 170.091C469.614 158.746 473.021 144.699 473.064 129.668L440.377 129.575ZM440.561 64.8339L440.377 129.575L473.064 129.668L473.249 64.927L440.561 64.8339ZM435.169 42.5994C438.297 47.3539 440.59 54.8027 440.561 64.8339L473.249 64.927C473.291 50.2426 469.99 36.0537 462.476 24.6328L435.169 42.5994ZM428.556 36.2922C431.185 37.7255 433.403 39.8068 435 42.3381L462.644 24.8942C458.072 17.6492 451.724 11.6937 444.203 7.59293L428.556 36.2922ZM419.98 34.1497C422.975 34.1213 425.927 34.8589 428.556 36.2922L444.203 7.59291C436.681 3.4922 428.236 1.38237 419.67 1.46363L419.98 34.1497ZM496.358 129.734C496.352 132.004 496.254 133.497 496.135 134.434C496.006 135.452 495.921 135.23 496.285 134.4C496.716 133.417 497.878 131.384 500.371 129.759C502.871 128.13 505.236 127.871 506.394 127.875L506.301 160.562C509.78 160.572 514.096 159.831 518.218 157.145C522.333 154.463 524.787 150.798 526.223 147.523C528.715 141.838 529.031 135.169 529.046 129.827L496.358 129.734ZM496.667 20.843L496.358 129.734L529.046 129.827L529.355 20.9357L496.667 20.843ZM543.94 4.63334L513.058 4.54566L512.965 37.2331L543.848 37.3207L543.94 4.63334ZM559.929 129.914L560.238 21.0234L527.55 20.9306L527.241 129.822L559.929 129.914ZM548.325 170.338C556.492 158.987 559.886 144.935 559.929 129.914L527.241 129.822C527.212 140.192 524.873 146.964 521.792 151.246L548.325 170.338ZM506.213 191.448C523.126 191.496 538.442 184.101 548.334 170.324L521.782 151.259C518.373 156.008 513.225 158.78 506.306 158.76L506.213 191.448ZM464.156 170.062C473.98 183.922 489.317 191.4 506.213 191.448L506.306 158.76C499.371 158.741 494.196 155.918 490.824 151.16L464.156 170.062ZM452.839 129.61C452.797 144.617 456.083 158.678 464.158 170.065L490.821 151.156C487.79 146.882 485.497 140.106 485.527 129.703L452.839 129.61ZM453.149 20.7194L452.839 129.61L485.527 129.703L485.836 20.8122L453.149 20.7194ZM500.431 4.5098L469.539 4.42209L469.446 37.1095L500.338 37.1972L500.431 4.5098ZM516.419 129.791L516.728 20.8999L484.04 20.8071L483.731 129.698L516.419 129.791ZM506.394 127.875C507.552 127.878 509.915 128.15 512.406 129.793C514.89 131.432 516.04 133.472 516.465 134.458C516.824 135.29 516.738 135.511 516.615 134.492C516.502 133.555 516.412 132.061 516.419 129.791L483.731 129.698C483.716 135.04 483.994 141.711 486.453 147.41C487.87 150.693 490.304 154.372 494.404 157.077C498.511 159.787 502.822 160.552 506.301 160.562L506.394 127.875Z" fill="black" mask="url(#path-1-outside-1_6259_7325)"/>
</svg>
